<?xml version="1.0" standalone="no"?><!DOCTYPE svg PUBLIC "-//W3C//DTD SVG 1.1//EN" "http://www.w3.org/Graphics/SVG/1.1/DTD/svg11.dtd"><svg t="1606983259131" class="icon" viewBox="0 0 1024 1024" version="1.1" xmlns="http://www.w3.org/2000/svg" p-id="5586" xmlns:xlink="http://www.w3.org/1999/xlink" width="128" height="128"><defs><style type="text/css"></style></defs><path d="M257.153 634.996l23.709-32.607c17.781 17.778 41.491 35.56 74.081 35.56 35.56 0 59.271-20.73 59.271-53.341 0-35.56-23.712-59.277-94.832-59.277V489.78c62.23 0 82.981-23.701 82.981-56.3 0-26.671-17.781-44.451-47.421-44.451-23.701 0-44.449 11.851-62.229 29.63l-26.67-29.63c26.67-23.709 56.31-38.521 91.869-38.521 56.302 0 97.79 29.631 97.79 80.01 0 35.561-20.751 62.23-53.338 74.081v2.961c35.557 8.889 65.188 35.553 65.188 80.001 0 56.326-47.41 91.886-106.679 91.886-50.379-2.986-82.97-20.768-103.72-44.451z m275.582-278.568h82.996c97.79 0 151.131 53.341 151.131 157.061 0 103.729-56.325 160.02-148.179 160.02h-85.948V356.428z m77.06 275.581c68.167 0 103.727-38.512 103.727-118.521 0-80.01-35.56-115.57-103.727-115.57h-29.623v234.09h29.623z" fill="#15d7ec" p-id="5587"></path><path d="M926.882 543.111c-17.778 0-29.657-14.796-29.657-29.623 0-186.69-136.299-343.749-314.101-376.34l65.18 77.04c11.88 11.859 8.892 32.6-2.952 44.45-14.826 8.891-35.557 8.891-44.449-5.921l-112.61-136.319c-8.89-8.89-8.89-20.74-2.959-32.591 2.959-8.889 14.82-14.819 26.671-14.819 245.968 0 444.5 198.541 444.5 444.5 0 17.781-14.832 29.623-29.623 29.623zM512.005 957.988c-245.961 0-444.501-198.532-444.501-444.5 0-17.78 14.82-29.63 29.63-29.63 14.82 0 29.639 14.81 29.639 29.63 0 186.69 136.311 343.758 314.113 376.333l-65.191-77.024c-11.862-11.876-8.892-32.609 2.958-44.451 11.851-11.877 32.599-8.89 44.449 2.952L535.723 907.6c8.89 8.89 8.89 20.766 2.953 32.607-2.953 11.842-14.832 17.781-26.671 17.781z" fill="#15d7ec" p-id="5588"></path></svg>