<?xml version="1.0" standalone="no"?><!DOCTYPE svg PUBLIC "-//W3C//DTD SVG 1.1//EN" "http://www.w3.org/Graphics/SVG/1.1/DTD/svg11.dtd"><svg t="1599964965124" class="icon" viewBox="0 0 1024 1024" version="1.1" xmlns="http://www.w3.org/2000/svg" p-id="11381" xmlns:xlink="http://www.w3.org/1999/xlink" width="200" height="200"><defs><style type="text/css"></style></defs><path d="M822.16448 68.74112H201.86112c-57.088 0-103.3728 49.62816-103.3728 110.81216v664.89856c0 61.2096 46.2848 110.81728 103.3728 110.81728h620.26752c57.09824 0 103.37792-49.62816 103.37792-110.83264V179.54816c0.01536-61.17888-46.26432-110.80704-103.34208-110.80704z m-298.27584 471.80288a261.92384 261.92384 0 0 0-33.22368-1.57696c-8.91904 0.17408-17.8176 0.78848-26.68032 1.83296l-2.66752 0.35328a262.75328 262.75328 0 0 0-64.13824 18.29888l-0.11776 0.06656a268.66176 268.66176 0 0 0-57.68192 35.68128 283.3664 283.3664 0 0 0-42.01984 43.8272c-0.44032 0.59392-2.33472 3.16928-2.4832 3.31776l-1.27488 1.78176a292.16768 292.16768 0 0 0-30.0288 53.8624l-1.59744 3.85024-0.88576 2.2784a293.08928 293.08928 0 0 0-16.08192 63.37024l-0.4096 3.49696c-0.512 4.63872-0.90624 9.28256-1.18272 13.95712a302.30528 302.30528 0 0 0-0.5888 18.65728v0.0256c-0.03072 11.07456-8.79616 20.29056-19.36896 20.29056-10.51136 0-19.36896-9.24672-19.36896-20.29056 0.1536-52.56192 13.0304-105.088 37.9648-150.74816a303.39072 303.39072 0 0 1 96.24064-106.36288 283.25888 283.25888 0 0 1 68.49024-33.69472 179.35872 179.35872 0 0 1-71.07072-91.02848c-13.58848-38.40512-13.91616-83.18464 0-121.5232 13.97248-38.67648 39.5008-72.02304 73.79456-92.928a165.3248 165.3248 0 0 1 117.43744-21.08416 166.21056 166.21056 0 0 1 97.07008 59.10528 186.38336 186.38336 0 0 1 40.8064 115.6352 185.46688 185.46688 0 0 1-40.8064 115.66592 171.23328 171.23328 0 0 1-40.56576 36.2752 288.17408 288.17408 0 0 1 50.33472 22.26688c9.30304 5.21728 12.14464 18.47296 6.9632 27.78112a19.11296 19.11296 0 0 1-25.9328 7.56736c-0.1792-0.10752-0.36352-0.19968-0.54272-0.31744a270.90944 270.90944 0 0 0-20.86912-10.62912l-0.1792-0.08704a260.38784 260.38784 0 0 0-64.08192-18.304 209.14176 209.14176 0 0 0-5.25312-0.67072z m276.6592 300.24192H548.608c-10.5472 0-19.33312-9.24672-19.33312-20.31616 0-11.04896 8.79616-20.28544 19.33312-20.28544h251.93984c10.5472 0 19.328 9.23648 19.328 20.28544 0.01024 11.06944-8.7808 20.31616-19.328 20.31616z m0-105.728H548.608c-10.5472 0-19.33312-9.2416-19.33312-20.28032 0-11.07968 8.79616-20.31104 19.33312-20.31104h251.93984c10.5472 0 19.328 9.23136 19.328 20.31104 0.01024 11.05408-8.7808 20.28032-19.328 20.28032z m0-105.6768H548.608c-10.5472 0-19.33312-9.23648-19.33312-20.31104 0-11.04384 8.79616-20.29056 19.33312-20.29056h251.93984c10.5472 0 19.328 9.24672 19.328 20.29056 0.01024 11.07456-8.7808 20.31104-19.328 20.31104z" fill="#1296db" p-id="11382"></path><path d="M598.97856 444.98944a157.78816 157.78816 0 0 0 17.01888-30.62272l0.5376-1.30048a161.82272 161.82272 0 0 0 8.5248-33.40288l0.47616-4.5312a166.98368 166.98368 0 0 0-0.50176-33.16736v-0.14848a165.18144 165.18144 0 0 0-9.15456-34.64704l-0.29696-0.65024-1.37216-3.05152a156.04736 156.04736 0 0 0-15.08864-26.29632 165.64224 165.64224 0 0 0-17.85856-19.77856 181.50912 181.50912 0 0 0-4.82304-4.29056l-1.38752-1.18272-0.53248-0.384a149.59104 149.59104 0 0 0-28.05248-17.08544 144.67072 144.67072 0 0 0-29.78304-9.06752l-4.91008-0.79872-4.20352-0.44032a145.67936 145.67936 0 0 0-31.00672 0.71168l-0.73728 0.11776a143.49824 143.49824 0 0 0-31.86688 9.38496 148.224 148.224 0 0 0-25.57952 15.22176l-3.1744 2.4832a153.87648 153.87648 0 0 0-22.8864 23.69024l-1.13152 1.47968a158.6688 158.6688 0 0 0-16.8448 30.26432 162.2784 162.2784 0 0 0-9.0368 34.35008l-0.0256 0.26624a166.48704 166.48704 0 0 0-0.0256 37.54496l0.05632 0.47616c1.77664 11.7504 4.76672 23.2448 9.00608 34.25792v0.03072l1.3312 3.08224a163.584 163.584 0 0 0 13.32736 24.0128l2.37056 3.34336a150.4256 150.4256 0 0 0 21.70368 23.30112l0.0256 0.03072 1.99168 1.6896a148.48 148.48 0 0 0 28.98944 17.7664 143.72352 143.72352 0 0 0 33.19296 9.56416c1.3312 0.14336 3.61472 0.44032 4.44416 0.50688a144.5888 144.5888 0 0 0 31.3856-0.47616l0.3584-0.06144a130.58048 130.58048 0 0 0 19.15392-4.5056 142.30528 142.30528 0 0 0 13.24032-4.82304l0.11776-0.06144 2.12992-0.97792a152.12032 152.12032 0 0 0 27.1616-16.9984l3.64032-3.07712a153.33888 153.33888 0 0 0 20.096-21.74976z" fill="#1296db" p-id="11383"></path></svg>