<?xml version="1.0" standalone="no"?><!DOCTYPE svg PUBLIC "-//W3C//DTD SVG 1.1//EN" "http://www.w3.org/Graphics/SVG/1.1/DTD/svg11.dtd"><svg t="1599964843255" class="icon" viewBox="0 0 1024 1024" version="1.1" xmlns="http://www.w3.org/2000/svg" p-id="6841" xmlns:xlink="http://www.w3.org/1999/xlink" width="200" height="200"><defs><style type="text/css"></style></defs><path d="M516.5 530.6m-428.9 0a428.9 428.9 0 1 0 857.8 0 428.9 428.9 0 1 0-857.8 0Z" fill="#215EC6" p-id="6842"></path><path d="M516.5 530.6m-393.7 0a393.7 393.7 0 1 0 787.4 0 393.7 393.7 0 1 0-787.4 0Z" fill="#FFFFFF" p-id="6843"></path><path d="M512 530.6m-353.9 0a353.9 353.9 0 1 0 707.8 0 353.9 353.9 0 1 0-707.8 0Z" fill="#215EC6" p-id="6844"></path><path d="M622.4 494.7c-148.3 0-210.9-70.1-256.8-70.1-92.7 0-92.2 62.1-133.4 62.1-72.9 0 16.5-115.2 140.7-115.2 95.1 0 79.4 70.8 250.3 70.8 137.9 0 101.6-70.8 158.6-70.8 50 8.9-18.4 123.2-159.4 123.2zM622.4 653.9c-148.4 0-203-68.9-248.9-68.9-92.7 0-94.9 68.9-136.1 68.9-72.9 0 5-123.2 129.1-123.2 95.1 0 85.8 70.8 256.7 70.8 137.9 0 89.5-55.6 158.6-70.8 59.1 6.5-18.4 123.2-159.4 123.2z" fill="#FFFFFF" p-id="6845"></path></svg>